<mxfile host="app.diagrams.net" modified="2023-05-18T20:06:56.981Z" agent="Mozilla/5.0 (Windows NT 10.0; Win64; x64) AppleWebKit/537.36 (KHTML, like Gecko) Chrome/113.0.0.0 Safari/537.36" etag="lD6HGLeee7m7KZzn8Osf" version="21.3.2" type="github">
  <diagram name="Página-1" id="eutRkEEPKsezAWd-uyYn">
    <mxGraphModel dx="640" dy="280" grid="1" gridSize="10" guides="1" tooltips="1" connect="1" arrows="1" fold="1" page="1" pageScale="1" pageWidth="827" pageHeight="1169" math="0" shadow="0">
      <root>
        <mxCell id="0" />
        <mxCell id="1" parent="0" />
        <mxCell id="D4cUqvOeYQzDFqKzps2J-1" value="Início" style="ellipse;whiteSpace=wrap;html=1;" vertex="1" parent="1">
          <mxGeometry x="87.5" y="30" width="120" height="50" as="geometry" />
        </mxCell>
        <mxCell id="D4cUqvOeYQzDFqKzps2J-2" value="Fim" style="ellipse;whiteSpace=wrap;html=1;" vertex="1" parent="1">
          <mxGeometry x="630" y="822.5" width="160" height="67.5" as="geometry" />
        </mxCell>
        <mxCell id="D4cUqvOeYQzDFqKzps2J-3" value="Informe a nota N1" style="shape=display;whiteSpace=wrap;html=1;" vertex="1" parent="1">
          <mxGeometry x="82.5" y="140" width="130" height="60" as="geometry" />
        </mxCell>
        <mxCell id="D4cUqvOeYQzDFqKzps2J-4" value="N1" style="shape=manualInput;whiteSpace=wrap;html=1;align=center;" vertex="1" parent="1">
          <mxGeometry x="82.5" y="260" width="130" height="60" as="geometry" />
        </mxCell>
        <mxCell id="D4cUqvOeYQzDFqKzps2J-5" value="Informe a nota N2" style="shape=display;whiteSpace=wrap;html=1;" vertex="1" parent="1">
          <mxGeometry x="82.5" y="390" width="130" height="60" as="geometry" />
        </mxCell>
        <mxCell id="D4cUqvOeYQzDFqKzps2J-6" value="Informe a nota N3" style="shape=display;whiteSpace=wrap;html=1;" vertex="1" parent="1">
          <mxGeometry x="77.5" y="650" width="130" height="60" as="geometry" />
        </mxCell>
        <mxCell id="D4cUqvOeYQzDFqKzps2J-7" value="N2" style="shape=manualInput;whiteSpace=wrap;html=1;align=center;" vertex="1" parent="1">
          <mxGeometry x="77.5" y="520" width="130" height="60" as="geometry" />
        </mxCell>
        <mxCell id="D4cUqvOeYQzDFqKzps2J-8" value="N3" style="shape=manualInput;whiteSpace=wrap;html=1;align=center;" vertex="1" parent="1">
          <mxGeometry x="73.5" y="780" width="130" height="60" as="geometry" />
        </mxCell>
        <mxCell id="D4cUqvOeYQzDFqKzps2J-9" value="Média = (N1+N2+N3) / 3" style="rounded=0;whiteSpace=wrap;html=1;" vertex="1" parent="1">
          <mxGeometry x="70" y="910" width="145" height="60" as="geometry" />
        </mxCell>
        <mxCell id="D4cUqvOeYQzDFqKzps2J-11" value="Média" style="shape=display;whiteSpace=wrap;html=1;" vertex="1" parent="1">
          <mxGeometry x="73.5" y="1040" width="130" height="60" as="geometry" />
        </mxCell>
        <mxCell id="D4cUqvOeYQzDFqKzps2J-12" value="A Média é maior que 7" style="rhombus;whiteSpace=wrap;html=1;" vertex="1" parent="1">
          <mxGeometry x="360" y="1010" width="164" height="120" as="geometry" />
        </mxCell>
        <mxCell id="D4cUqvOeYQzDFqKzps2J-13" value="Aprovado" style="shape=display;whiteSpace=wrap;html=1;" vertex="1" parent="1">
          <mxGeometry x="650" y="1040" width="130" height="60" as="geometry" />
        </mxCell>
        <mxCell id="D4cUqvOeYQzDFqKzps2J-14" value="Reprovado" style="shape=display;whiteSpace=wrap;html=1;" vertex="1" parent="1">
          <mxGeometry x="370" y="820" width="130" height="60" as="geometry" />
        </mxCell>
        <mxCell id="D4cUqvOeYQzDFqKzps2J-15" value="" style="endArrow=classic;html=1;rounded=0;" edge="1" parent="1">
          <mxGeometry relative="1" as="geometry">
            <mxPoint x="500" y="849.29" as="sourcePoint" />
            <mxPoint x="584" y="849.79" as="targetPoint" />
          </mxGeometry>
        </mxCell>
        <mxCell id="D4cUqvOeYQzDFqKzps2J-25" value="" style="endArrow=classic;html=1;rounded=0;" edge="1" parent="1">
          <mxGeometry relative="1" as="geometry">
            <mxPoint x="147.5" y="80" as="sourcePoint" />
            <mxPoint x="147.5" y="130" as="targetPoint" />
          </mxGeometry>
        </mxCell>
        <mxCell id="D4cUqvOeYQzDFqKzps2J-26" value="" style="endArrow=classic;html=1;rounded=0;" edge="1" parent="1">
          <mxGeometry relative="1" as="geometry">
            <mxPoint x="146.5" y="200" as="sourcePoint" />
            <mxPoint x="146.5" y="250" as="targetPoint" />
          </mxGeometry>
        </mxCell>
        <mxCell id="D4cUqvOeYQzDFqKzps2J-27" value="" style="endArrow=classic;html=1;rounded=0;" edge="1" parent="1">
          <mxGeometry relative="1" as="geometry">
            <mxPoint x="146.5" y="320" as="sourcePoint" />
            <mxPoint x="146.5" y="370" as="targetPoint" />
          </mxGeometry>
        </mxCell>
        <mxCell id="D4cUqvOeYQzDFqKzps2J-28" value="" style="endArrow=classic;html=1;rounded=0;" edge="1" parent="1">
          <mxGeometry relative="1" as="geometry">
            <mxPoint x="146.5" y="450" as="sourcePoint" />
            <mxPoint x="146.5" y="500" as="targetPoint" />
          </mxGeometry>
        </mxCell>
        <mxCell id="D4cUqvOeYQzDFqKzps2J-29" value="" style="endArrow=classic;html=1;rounded=0;" edge="1" parent="1">
          <mxGeometry relative="1" as="geometry">
            <mxPoint x="142.20999999999998" y="580" as="sourcePoint" />
            <mxPoint x="142.20999999999998" y="630" as="targetPoint" />
          </mxGeometry>
        </mxCell>
        <mxCell id="D4cUqvOeYQzDFqKzps2J-30" value="" style="endArrow=classic;html=1;rounded=0;" edge="1" parent="1">
          <mxGeometry relative="1" as="geometry">
            <mxPoint x="138.20999999999998" y="710" as="sourcePoint" />
            <mxPoint x="138.20999999999998" y="760" as="targetPoint" />
          </mxGeometry>
        </mxCell>
        <mxCell id="D4cUqvOeYQzDFqKzps2J-31" value="" style="endArrow=classic;html=1;rounded=0;" edge="1" parent="1">
          <mxGeometry relative="1" as="geometry">
            <mxPoint x="138.20999999999998" y="840" as="sourcePoint" />
            <mxPoint x="138.20999999999998" y="890" as="targetPoint" />
          </mxGeometry>
        </mxCell>
        <mxCell id="D4cUqvOeYQzDFqKzps2J-32" value="" style="endArrow=classic;html=1;rounded=0;" edge="1" parent="1">
          <mxGeometry relative="1" as="geometry">
            <mxPoint x="138.20999999999998" y="970" as="sourcePoint" />
            <mxPoint x="138.20999999999998" y="1020" as="targetPoint" />
          </mxGeometry>
        </mxCell>
        <mxCell id="D4cUqvOeYQzDFqKzps2J-33" value="" style="endArrow=classic;html=1;rounded=0;" edge="1" parent="1">
          <mxGeometry relative="1" as="geometry">
            <mxPoint x="226.49999999999997" y="1069.29" as="sourcePoint" />
            <mxPoint x="336.5" y="1069.29" as="targetPoint" />
          </mxGeometry>
        </mxCell>
        <mxCell id="D4cUqvOeYQzDFqKzps2J-34" value="" style="endArrow=classic;html=1;rounded=0;" edge="1" parent="1">
          <mxGeometry relative="1" as="geometry">
            <mxPoint x="720" y="1040" as="sourcePoint" />
            <mxPoint x="720" y="920" as="targetPoint" />
          </mxGeometry>
        </mxCell>
        <mxCell id="D4cUqvOeYQzDFqKzps2J-37" value="" style="endArrow=classic;html=1;rounded=0;" edge="1" parent="1">
          <mxGeometry relative="1" as="geometry">
            <mxPoint x="440" y="1010" as="sourcePoint" />
            <mxPoint x="440" y="900" as="targetPoint" />
          </mxGeometry>
        </mxCell>
        <mxCell id="D4cUqvOeYQzDFqKzps2J-38" value="não" style="edgeLabel;resizable=0;html=1;align=center;verticalAlign=middle;" connectable="0" vertex="1" parent="D4cUqvOeYQzDFqKzps2J-37">
          <mxGeometry relative="1" as="geometry" />
        </mxCell>
        <mxCell id="D4cUqvOeYQzDFqKzps2J-39" value="" style="endArrow=classic;html=1;rounded=0;" edge="1" parent="1">
          <mxGeometry relative="1" as="geometry">
            <mxPoint x="524" y="1069.71" as="sourcePoint" />
            <mxPoint x="624" y="1069.71" as="targetPoint" />
          </mxGeometry>
        </mxCell>
        <mxCell id="D4cUqvOeYQzDFqKzps2J-40" value="Sim" style="edgeLabel;resizable=0;html=1;align=center;verticalAlign=middle;" connectable="0" vertex="1" parent="D4cUqvOeYQzDFqKzps2J-39">
          <mxGeometry relative="1" as="geometry" />
        </mxCell>
      </root>
    </mxGraphModel>
  </diagram>
</mxfile>
